<svg xmlns="http://www.w3.org/2000/svg" viewBox="0 0 800 600" role="img" aria-label="Ilustración: atención y soporte">
  <rect width="800" height="600" fill="#FFFFFF"/>
  <g fill="none" stroke-linecap="round" stroke-linejoin="round">
    <path d="M150 470c90-70 190-105 300-105s210 35 300 105" stroke="#4C7AF2" stroke-width="10" opacity=".25"/>

    <circle cx="430" cy="235" r="78" fill="#F6F8FF" stroke="#1F2A44" stroke-width="10"/>
    <path d="M382 238c12 20 28 30 48 30s36-10 48-30" stroke="#1F2A44" stroke-width="10"/>
    <path d="M404 220h0" stroke="#1F2A44" stroke-width="14"/>
    <path d="M456 220h0" stroke="#1F2A44" stroke-width="14"/>

    <path d="M350 235c0-60 36-108 80-108s80 48 80 108" stroke="#1F2A44" stroke-width="10"/>
    <path d="M334 265c-12-6-20-18-20-32 0-20 16-36 36-36h18" stroke="#4C7AF2" stroke-width="10"/>
    <path d="M526 197h18c20 0 36 16 36 36 0 14-8 26-20 32" stroke="#4C7AF2" stroke-width="10"/>

    <rect x="300" y="290" width="260" height="170" rx="26" fill="#FFFFFF" stroke="#1F2A44" stroke-width="10"/>
    <path d="M360 320h140" stroke="#6F7A90" stroke-width="8"/>
    <path d="M360 355h180" stroke="#6F7A90" stroke-width="8"/>
    <path d="M360 390h120" stroke="#6F7A90" stroke-width="8"/>

    <rect x="565" y="180" width="140" height="110" rx="20" fill="#F6F8FF" stroke="#4C7AF2" stroke-width="10"/>
    <path d="M600 230h70" stroke="#4C7AF2" stroke-width="10"/>
    <path d="M600 205h40" stroke="#4C7AF2" stroke-width="10"/>
    <path d="M620 290l-22 34" stroke="#4C7AF2" stroke-width="10"/>
  </g>
</svg>

