<svg xmlns="http://www.w3.org/2000/svg" viewBox="0 0 1600 1000" role="img" aria-label="Ilustración de finanzas claras">
  <defs>
    <linearGradient id="bg" x1="0" y1="0" x2="1" y2="1">
      <stop offset="0" stop-color="#F6F7FB"/>
      <stop offset="1" stop-color="#EEF2FF"/>
    </linearGradient>
    <linearGradient id="accent" x1="0" y1="0" x2="1" y2="0">
      <stop offset="0" stop-color="#4C7AF2" stop-opacity=".25"/>
      <stop offset=".5" stop-color="#4C7AF2" stop-opacity=".55"/>
      <stop offset="1" stop-color="#4C7AF2" stop-opacity=".25"/>
    </linearGradient>
    <filter id="shadow" x="-20%" y="-20%" width="140%" height="140%">
      <feDropShadow dx="0" dy="18" stdDeviation="18" flood-color="#0B1220" flood-opacity=".16"/>
    </filter>
  </defs>

  <!-- Background -->
  <rect width="1600" height="1000" fill="url(#bg)"/>
  <path d="M0 720 C 220 650, 380 820, 610 760 C 860 695, 1040 540, 1260 600 C 1410 640, 1505 740, 1600 700 L 1600 1000 L 0 1000 Z" fill="#E9EDFF"/>
  <path d="M0 760 C 260 700, 400 860, 640 800 C 900 735, 1100 570, 1320 640 C 1460 685, 1530 780, 1600 740" fill="none" stroke="url(#accent)" stroke-width="16" stroke-linecap="round"/>

  <!-- Dashboard card -->
  <g filter="url(#shadow)">
    <rect x="230" y="210" rx="28" ry="28" width="1140" height="560" fill="#ffffff"/>
    <rect x="230" y="210" rx="28" ry="28" width="1140" height="72" fill="#1F2A44"/>
    <circle cx="270" cy="246" r="10" fill="#ffffff" opacity=".85"/>
    <circle cx="305" cy="246" r="10" fill="#ffffff" opacity=".65"/>
    <circle cx="340" cy="246" r="10" fill="#ffffff" opacity=".45"/>

    <!-- Simple chart -->
    <rect x="310" y="340" width="980" height="2" fill="#E7EAF2"/>
    <rect x="310" y="430" width="980" height="2" fill="#E7EAF2"/>
    <rect x="310" y="520" width="980" height="2" fill="#E7EAF2"/>
    <rect x="310" y="610" width="980" height="2" fill="#E7EAF2"/>

    <path d="M320 635 C 470 590, 540 470, 700 510 C 840 545, 930 410, 1040 450 C 1170 500, 1230 370, 1290 340" fill="none" stroke="#4C7AF2" stroke-width="10" stroke-linecap="round"/>
    <circle cx="320" cy="635" r="9" fill="#4C7AF2"/>
    <circle cx="700" cy="510" r="9" fill="#4C7AF2"/>
    <circle cx="1040" cy="450" r="9" fill="#4C7AF2"/>
    <circle cx="1290" cy="340" r="9" fill="#4C7AF2"/>

    <!-- KPI tiles -->
    <rect x="310" y="300" rx="18" ry="18" width="260" height="80" fill="#F6F7FB" stroke="#E7EAF2"/>
    <rect x="600" y="300" rx="18" ry="18" width="260" height="80" fill="#F6F7FB" stroke="#E7EAF2"/>
    <rect x="890" y="300" rx="18" ry="18" width="400" height="80" fill="#F6F7FB" stroke="#E7EAF2"/>
    <rect x="340" y="330" width="140" height="10" rx="5" fill="#1F2A44" opacity=".35"/>
    <rect x="340" y="350" width="90" height="10" rx="5" fill="#4C7AF2" opacity=".65"/>
    <rect x="630" y="330" width="160" height="10" rx="5" fill="#1F2A44" opacity=".35"/>
    <rect x="630" y="350" width="120" height="10" rx="5" fill="#4C7AF2" opacity=".65"/>
    <rect x="920" y="330" width="220" height="10" rx="5" fill="#1F2A44" opacity=".35"/>
    <rect x="920" y="350" width="170" height="10" rx="5" fill="#4C7AF2" opacity=".65"/>
  </g>

  <!-- Brand mark (subtle) -->
  <g opacity=".22" transform="translate(1260 94) scale(1.05)">
    <polygon points="86,25 86,75 50,95 14,75 14,25 50,5" fill="#1F2A44"/>
    <polygon points="78,29 78,71 50,87 22,71 22,29 50,13" fill="#fff"/>
    <text x="50" y="62" text-anchor="middle" font-family="Georgia,serif" font-weight="700" font-size="54" fill="#1F2A44">&amp;</text>
  </g>
</svg>

