<svg xmlns="http://www.w3.org/2000/svg" viewBox="0 0 800 600" role="img" aria-label="Ilustración: consultoría financiera">
  <rect width="800" height="600" fill="#F6F7FB"/>
  <g fill="none" stroke-linecap="round" stroke-linejoin="round">
    <rect x="160" y="140" width="480" height="340" rx="22" fill="#FFFFFF" stroke="#1F2A44" stroke-width="8"/>
    <path d="M210 430V190" stroke="#1F2A44" stroke-width="8"/>
    <path d="M210 430h390" stroke="#1F2A44" stroke-width="8"/>

    <rect x="250" y="330" width="50" height="100" rx="10" fill="#F6F8FF" stroke="#4C7AF2" stroke-width="8"/>
    <rect x="325" y="290" width="50" height="140" rx="10" fill="#F6F8FF" stroke="#4C7AF2" stroke-width="8"/>
    <rect x="400" y="250" width="50" height="180" rx="10" fill="#F6F8FF" stroke="#4C7AF2" stroke-width="8"/>
    <rect x="475" y="205" width="50" height="225" rx="10" fill="#F6F8FF" stroke="#4C7AF2" stroke-width="8"/>

    <path d="M245 320l80-50 78 28 78-58 75 30" stroke="#1F2A44" stroke-width="10"/>
    <path d="M565 270l22-26" stroke="#1F2A44" stroke-width="10"/>
    <path d="M570 245h30v30" stroke="#1F2A44" stroke-width="10"/>

    <circle cx="260" cy="120" r="30" fill="#FFFFFF" stroke="#1F2A44" stroke-width="8"/>
    <path d="M242 120h36" stroke="#1F2A44" stroke-width="8"/>
    <path d="M260 102v36" stroke="#1F2A44" stroke-width="8"/>

    <path d="M600 120c36 18 66 44 90 78" stroke="#4C7AF2" stroke-width="10" opacity=".55"/>
  </g>
</svg>

